<svg width="21" height="20" viewBox="0 0 21 20" fill="none" xmlns="http://www.w3.org/2000/svg">
<path d="M10.0168 0.488111C12.4669 0.489775 14.8218 1.43731 16.5902 3.13309C18.3586 4.82887 19.4041 7.14194 19.5084 9.58982C19.6128 12.0377 18.7681 14.4314 17.1504 16.2715C15.5328 18.1117 13.2671 19.2562 10.8261 19.4665C10.5583 19.5068 10.2875 19.5231 10.0168 19.515C9.32339 19.5186 8.63174 19.4443 7.9549 19.2935C5.66401 18.7881 3.64057 17.4542 2.2732 15.548C0.905833 13.6417 0.29095 11.2975 0.546644 8.96546C0.802338 6.63347 1.91058 4.47816 3.65852 2.91347C5.40647 1.34877 7.67087 0.485024 10.0168 0.488111ZM10.0168 0C7.36428 0.000818763 4.82027 1.05339 2.94256 2.92697C1.06485 4.80054 0.00666742 7.34222 0 9.99477C0 14.633 3.30124 18.7477 7.84629 19.772C8.55958 19.9252 9.2873 20.001 10.0168 19.9982C10.3153 20.0055 10.614 19.9908 10.9103 19.9541C15.9897 19.5418 20.007 15.1697 20.007 9.99476C20.0037 7.34579 18.9503 4.80617 17.0776 2.93263C15.2049 1.05909 12.6658 0.00448581 10.0168 0Z" fill="white"/>
<path d="M11.0965 7.9997C11.2429 7.82671 11.5377 7.7023 11.9567 7.7023C12.396 7.70513 12.8329 7.76636 13.256 7.88437L13.6262 5.88878C12.8657 5.64187 12.0687 5.5264 11.2695 5.54733C10.458 5.54733 9.81948 5.67174 9.30511 5.96869C8.78853 6.25248 8.44485 6.57623 8.24978 7.04618C8.05245 7.46755 7.95487 8.17225 7.95487 9.05947V9.84409H6.38074V12.1235H7.95487V19.2935C8.63172 19.4444 9.32337 19.5187 10.0168 19.5151C10.2875 19.5232 10.5583 19.5069 10.826 19.4665V12.1235H12.9123V9.8441H10.826V9.10806C10.826 8.54503 10.9014 8.19903 11.0965 7.9997Z" fill="white"/>
</svg>
