<svg width="21" height="20" viewBox="0 0 21 20" fill="none" xmlns="http://www.w3.org/2000/svg">
<path d="M10.1957 0.487934C12.0772 0.487063 13.9167 1.04421 15.4816 2.0889C17.0465 3.13359 18.2664 4.61891 18.987 6.35698C19.7076 8.09504 19.8967 10.0078 19.5301 11.8533C19.1636 13.6988 18.258 15.3941 16.9278 16.7249C15.5977 18.0556 13.9028 18.962 12.0574 19.3294C10.2121 19.6968 8.29929 19.5087 6.56089 18.7889C4.82249 18.069 3.33661 16.8498 2.29119 15.2854C1.24577 13.721 0.687775 11.8818 0.687775 10.0002C0.687866 7.4782 1.68948 5.05943 3.4724 3.27568C5.25533 1.49193 7.67364 0.489193 10.1957 0.487934ZM10.1957 0C8.21804 0.00086155 6.28508 0.588075 4.64117 1.6874C2.99725 2.78673 1.71621 4.34881 0.959994 6.17613C0.203779 8.00345 0.0063529 10.014 0.392679 11.9535C0.779004 13.893 1.73173 15.6744 3.13041 17.0725C4.52908 18.4706 6.3109 19.4226 8.25058 19.8081C10.1903 20.1937 12.2007 19.9954 14.0277 19.2384C15.8547 18.4815 17.4163 17.1998 18.5149 15.5554C19.6136 13.911 20.2 11.9778 20.2 10.0002C20.1973 7.34813 19.1422 4.80551 17.2665 2.93059C15.3908 1.05566 12.8478 0.00166665 10.1957 0Z" fill="white"/>
<path d="M16.1947 6.94989C16.0474 7.42539 15.8488 7.83928 15.6001 8.21508L15.6104 8.19828C15.366 8.61646 15.0742 9.09961 14.7348 9.64773C14.4439 10.0805 14.2898 10.3045 14.2727 10.3198C14.1975 10.4167 14.1451 10.5354 14.1271 10.6659L14.1265 10.6699C14.1413 10.7886 14.1947 10.8922 14.2727 10.9695L14.491 11.2193C15.6584 12.4511 16.3151 13.3001 16.4609 13.7665C16.48 13.818 16.4909 13.8774 16.4909 13.9395C16.4909 14.0482 16.4571 14.1484 16.3998 14.2308L16.4009 14.2291C16.3049 14.3305 16.1707 14.3932 16.0223 14.3932C16.0059 14.3932 15.989 14.3926 15.9732 14.3909H15.9754H14.5401C14.5395 14.3909 14.5384 14.3909 14.5373 14.3909C14.3535 14.3909 14.1844 14.3249 14.0518 14.2151L14.0534 14.2162C13.8603 14.0532 13.6885 13.8768 13.5346 13.6853L13.5297 13.6785C13.2784 13.3869 13.0555 13.1414 12.8609 12.942C12.2128 12.3095 11.7345 11.9933 11.4261 11.9933C11.4146 11.9922 11.4015 11.9916 11.3879 11.9916C11.2979 11.9916 11.2139 12.0202 11.1446 12.0689L11.1462 12.0678C11.0895 12.1406 11.0551 12.2347 11.0551 12.3361C11.0551 12.3562 11.0562 12.3753 11.0589 12.3949V12.3926C11.0442 12.5685 11.0355 12.7729 11.0355 12.9796C11.0355 13.0462 11.0366 13.1123 11.0382 13.1784V13.1689V13.818C11.0437 13.8443 11.0469 13.8746 11.0469 13.9054C11.0469 14.0409 10.9869 14.1619 10.8931 14.242L10.8925 14.2425C10.6814 14.3417 10.4348 14.3999 10.1746 14.3999C10.119 14.3999 10.0644 14.3971 10.0104 14.3921L10.0175 14.3926C9.1588 14.3758 8.36231 14.1176 7.68528 13.6825L7.70438 13.6937C6.88006 13.1795 6.19704 12.5102 5.67659 11.7194L5.66186 11.6959C5.16759 11.0227 4.70661 10.2621 4.31381 9.46011L4.27562 9.37386C4.04595 8.92469 3.80809 8.37246 3.60297 7.80455L3.57023 7.70094C3.48677 7.44555 3.42621 7.14871 3.40112 6.84124L3.40002 6.82723C3.40002 6.54421 3.56223 6.4027 3.88665 6.4027H5.32144C5.33453 6.40158 5.3498 6.40102 5.36562 6.40102C5.50092 6.40102 5.62585 6.44863 5.72459 6.52872L5.7235 6.5276C5.83261 6.65025 5.91335 6.80091 5.95318 6.96893L5.95481 6.97565C6.21886 7.74126 6.49872 8.38422 6.82059 9.00029L6.78404 8.92356C7.047 9.46683 7.33777 9.93449 7.66946 10.3663L7.65692 10.3489C7.94787 10.7156 8.17482 10.8989 8.33776 10.8989C8.34267 10.8995 8.34867 10.8995 8.35521 10.8995C8.43595 10.8995 8.50633 10.8547 8.54452 10.7875L8.54506 10.7863C8.58543 10.6799 8.60889 10.5562 8.60889 10.4273C8.60889 10.3999 8.6078 10.3725 8.60562 10.3456V10.3489V8.17644C8.59416 7.92048 8.53306 7.68134 8.43104 7.46683L8.43541 7.47747C8.36776 7.32961 8.28648 7.20192 8.18991 7.08822L8.19155 7.09047C8.10208 6.99861 8.04098 6.8782 8.02189 6.74378L8.02134 6.74042C8.02134 6.64521 8.06389 6.55952 8.13045 6.50351L8.13099 6.50295C8.19701 6.44079 8.28538 6.40326 8.38195 6.40326H8.38631H10.6481C10.6601 6.40158 10.6738 6.40102 10.688 6.40102C10.7943 6.40102 10.8898 6.45031 10.9531 6.5276L10.9536 6.52816C11.0098 6.63345 11.0431 6.75947 11.0431 6.89276C11.0431 6.91404 11.042 6.93477 11.0404 6.95549V6.95269V9.84992C11.0393 9.86336 11.0388 9.87904 11.0388 9.89472C11.0388 9.99777 11.0666 10.0947 11.1146 10.177L11.1135 10.1748C11.1533 10.2352 11.2199 10.2744 11.2952 10.2744H11.2957C11.3917 10.2677 11.479 10.2352 11.5527 10.1837L11.551 10.1848C11.6994 10.0801 11.8271 9.96081 11.9378 9.82583L11.94 9.82303C12.2711 9.43883 12.5766 9.0143 12.8429 8.56288L12.8641 8.52368C13.0518 8.20444 13.2548 7.81127 13.4386 7.40746L13.4724 7.32513L13.7157 6.82555C13.8003 6.57576 14.0273 6.3999 14.294 6.3999C14.3044 6.3999 14.3148 6.3999 14.3251 6.40046H14.3235H15.7588C16.1465 6.40046 16.292 6.5836 16.1952 6.94989H16.1947Z" fill="white"/>
</svg>
